<?xml version="1.0" standalone="no"?>
<!DOCTYPE svg PUBLIC "-//W3C//DTD SVG 20010904//EN"
 "http://www.w3.org/TR/2001/REC-SVG-20010904/DTD/svg10.dtd">
<svg version="1.0" xmlns="http://www.w3.org/2000/svg"
 width="400.000000pt" height="540.000000pt" viewBox="0 0 400.000000 540.000000"
 preserveAspectRatio="xMidYMid meet">
<metadata>
Created by potrace 1.16, written by Peter Selinger 2001-2019
</metadata>
<g transform="translate(0.000000,540.000000) scale(0.100000,-0.100000)"
fill="#000000" stroke="none">
<path d="M1650 5013 c0 -28 10 -51 39 -89 l38 -50 -46 -3 c-25 -1 -55 -4 -66
-8 l-20 -6 20 -8 c17 -6 16 -8 -8 -8 -16 -1 -26 -5 -23 -10 3 -5 -13 -16 -35
-25 -47 -19 -46 -34 0 -18 31 11 71 6 71 -9 0 -5 -14 -9 -31 -9 -25 0 -29 -3
-20 -13 12 -15 1 -28 -51 -60 -16 -10 -27 -21 -26 -25 0 -4 -6 -24 -15 -44
-22 -48 -22 -65 -2 -48 9 7 15 8 15 2 0 -10 -107 -129 -169 -189 -35 -33 -33
-45 3 -18 11 8 26 15 34 15 7 0 30 12 50 27 l37 27 -34 -37 c-19 -20 -31 -37
-25 -37 5 -1 -4 -12 -21 -26 -17 -15 -22 -24 -12 -20 25 8 21 -7 -13 -39 -16
-15 -27 -31 -25 -36 3 -4 -7 -17 -22 -29 -16 -12 -21 -19 -13 -15 8 4 -31 -38
-88 -92 -56 -54 -102 -101 -102 -105 0 -9 87 29 123 54 15 11 27 15 27 9 0 -6
7 -8 15 -5 22 9 18 -5 -11 -43 -14 -18 -27 -43 -29 -54 -3 -12 -11 -29 -20
-39 -8 -9 -15 -20 -15 -25 0 -13 31 17 62 63 16 24 32 41 35 38 3 -3 -17 -33
-44 -68 -46 -59 -69 -98 -57 -98 3 0 42 37 87 83 45 46 79 79 75 73 -12 -15
-9 -28 4 -20 7 4 8 3 4 -5 -4 -6 -12 -8 -18 -5 -7 4 -8 2 -4 -5 4 -6 1 -23 -8
-36 -10 -16 -12 -25 -4 -27 8 -3 7 -11 -3 -28 -7 -14 -12 -30 -11 -37 1 -6 -2
-14 -7 -17 -5 -3 -7 -15 -4 -26 3 -12 -1 -22 -11 -26 -9 -3 -16 -14 -16 -23 0
-9 -7 -26 -15 -37 -8 -12 -12 -24 -8 -27 3 -3 -9 -24 -26 -45 -53 -68 -34 -60
34 13 60 64 67 67 48 18 -3 -10 -8 -29 -10 -42 -2 -14 -8 -32 -12 -40 -5 -9
-9 -35 -9 -58 -1 -23 -6 -51 -12 -62 -9 -17 -8 -20 6 -14 13 5 15 3 9 -7 -5
-8 -9 -26 -10 -40 -1 -14 -5 -31 -9 -38 -14 -22 18 -12 46 15 17 16 28 21 28
13 0 -9 6 -8 20 5 26 24 25 15 -6 -46 -36 -72 -26 -97 14 -34 17 28 36 55 41
61 5 6 19 30 30 52 35 68 45 64 38 -15 -9 -90 -45 -200 -112 -340 -67 -141
-92 -176 -210 -304 -148 -160 -285 -406 -305 -550 -9 -65 -15 -78 -48 -112
-37 -39 -136 -117 -147 -117 -37 0 -325 -308 -325 -348 0 -5 -9 -21 -21 -36
-11 -15 -19 -33 -16 -40 3 -8 -1 -38 -8 -67 -8 -29 -12 -56 -10 -60 3 -3 -5
-19 -17 -35 -13 -15 -17 -24 -10 -20 11 6 12 -8 7 -71 -11 -139 -12 -177 -4
-208 4 -16 15 -66 25 -110 23 -110 46 -164 90 -210 l37 -40 -7 30 -7 30 22
-25 c18 -21 20 -22 15 -5 -7 24 32 -19 70 -78 14 -22 28 -36 31 -33 3 3 0 13
-8 22 -13 16 -12 16 9 5 13 -7 28 -23 34 -36 6 -13 16 -21 23 -19 6 3 18 -2
25 -10 7 -9 17 -13 23 -9 5 3 8 2 5 -3 -3 -5 0 -14 7 -21 9 -8 15 -9 17 -2 2
6 15 1 30 -10 14 -12 32 -21 40 -21 7 0 22 -6 33 -14 22 -14 119 -30 111 -18
-3 5 15 8 40 7 43 -1 57 8 32 19 -7 3 13 4 45 2 32 -2 73 0 91 4 46 10 94 1
101 -20 9 -27 50 -40 129 -40 80 0 136 15 136 35 0 7 -17 42 -38 76 -33 55
-47 68 -100 94 -33 17 -70 39 -82 49 -22 21 -118 162 -143 211 -38 76 -40 212
-4 282 9 18 44 63 78 100 33 37 86 107 119 154 34 49 75 97 98 112 l40 26 22
-24 c22 -23 23 -30 17 -117 -4 -65 -19 -135 -47 -231 -22 -76 -40 -147 -40
-157 0 -10 23 -40 52 -67 145 -136 289 -300 354 -403 74 -117 77 -120 152
-120 82 0 114 -21 132 -85 7 -25 21 -50 31 -55 10 -6 64 -13 121 -16 80 -5
107 -3 122 8 17 14 17 17 -12 79 -17 35 -33 72 -36 82 -6 17 -21 25 -116 60
-78 29 -304 247 -372 359 -88 144 -98 283 -38 526 20 83 31 157 34 230 4 86
11 124 36 197 37 108 35 158 -11 255 l-30 63 25 37 c13 20 81 92 150 161 221
217 302 343 391 612 72 218 108 285 175 326 28 17 54 31 59 31 17 0 71 51 71
66 0 9 35 59 78 112 43 53 89 113 102 132 26 38 41 51 51 45 3 -3 16 -31 27
-63 13 -33 35 -70 52 -85 35 -32 37 -45 10 -80 -30 -38 -26 -86 12 -126 41
-44 116 -91 144 -91 24 0 22 -7 39 133 4 30 0 57 -13 88 -11 24 -25 76 -31
114 -14 80 -21 93 -91 166 l-51 53 57 23 c85 34 126 30 235 -21 134 -63 168
-76 196 -76 38 0 63 -18 63 -45 0 -13 8 -40 17 -59 19 -41 66 -61 171 -72 61
-7 62 -6 62 19 0 13 -7 49 -16 78 -9 30 -18 59 -20 66 -2 7 -25 23 -52 37 -27
14 -73 50 -102 80 -60 63 -70 68 -211 95 -116 23 -252 65 -283 87 -11 8 -43
14 -70 14 -48 0 -126 -18 -126 -29 0 -3 -9 -17 -19 -30 l-18 -24 -43 61 c-45
64 -54 68 -172 97 -56 14 -79 -20 -140 -202 -17 -51 -35 -93 -41 -93 -6 0 -29
20 -53 44 -52 54 -74 67 -115 64 -22 -2 -34 3 -42 17 -25 44 -136 373 -137
403 0 23 3 24 48 19 26 -3 67 -10 92 -16 25 -5 88 -10 141 -11 85 0 98 -2 115
-21 28 -32 56 -39 103 -27 27 7 48 20 59 37 9 14 25 32 34 39 23 17 23 42 1
116 -14 45 -27 66 -58 91 -58 47 -442 264 -493 278 -37 10 -44 16 -53 49 -10
38 -15 42 -57 38 -13 -1 -34 6 -47 14 -33 22 -43 20 -87 -10 -35 -25 -40 -26
-56 -11 -31 27 -122 77 -122 66 0 -6 5 -19 10 -30 6 -10 7 -19 3 -19 -15 0
-73 40 -73 50 0 5 -4 10 -10 10 -5 0 -10 -17 -10 -37z m-614 -3367 c-9 -36
-90 -141 -187 -241 -49 -51 -89 -99 -89 -107 0 -19 56 -182 76 -219 15 -31 65
-171 83 -234 52 -187 51 -186 123 -193 49 -5 97 -27 98 -45 0 -4 -28 -6 -63
-4 -48 3 -69 9 -89 26 -15 13 -24 29 -22 36 3 7 -6 15 -21 19 -35 9 -125 94
-118 111 3 9 -5 17 -21 21 -14 3 -26 11 -26 17 0 6 -10 21 -22 34 -21 22 -21
24 -3 17 11 -3 0 12 -25 36 -25 23 -38 39 -29 37 14 -5 12 3 -7 44 -28 57 -30
66 -9 49 13 -11 13 -9 1 21 -7 19 -16 57 -19 84 -6 50 -6 50 9 20 14 -29 14
-29 8 25 -3 30 -10 59 -15 64 -15 17 -10 29 6 16 13 -11 14 -10 8 6 -6 17 -5
18 12 4 17 -13 17 -11 -2 20 -19 30 -20 38 -9 59 11 21 15 22 22 8 6 -10 9 7
10 51 0 37 4 87 9 112 8 39 10 42 15 20 6 -23 8 -21 15 15 9 46 35 92 35 62 0
-37 19 -14 31 38 7 30 17 55 24 55 12 0 35 55 35 83 0 11 31 -13 81 -63 67
-67 80 -85 75 -104z"/>
</g>
</svg>
