<?xml version="1.0" encoding="UTF-8"?>
<svg id="_Слой_1" data-name="Слой 1" xmlns="http://www.w3.org/2000/svg" viewBox="0 0 354.5 468.9">
  <defs>
    <style>
      .cls-1 {
        fill: #fff;
        stroke-width: 0px;
      }
    </style>
  </defs>
  <path class="cls-1" d="M142.5,3.7c0,2.8,1,5.1,3.9,8.9l3.8,5-4.6.3c-2.5.1-5.5.4-6.6.8l-2,.6,2,.8c1.7.6,1.6.8-.8.8-1.6.1-2.6.5-2.3,1s-1.3,1.6-3.5,2.5c-4.7,1.9-4.6,3.4,0,1.8,3.1-1.1,7.1-.6,7.1.9s-1.4.9-3.1.9c-2.5,0-2.9.3-2,1.3,1.2,1.5.1,2.8-5.1,6-1.6,1-2.7,2.1-2.6,2.5,0,.4-.6,2.4-1.5,4.4-2.2,4.8-2.2,6.5-.2,4.8.9-.7,1.5-.8,1.5-.2,0,1-10.7,12.9-16.9,18.9-3.5,3.3-3.3,4.5.3,1.8,1.1-.8,2.6-1.5,3.4-1.5s3-1.2,5-2.7l3.7-2.7-3.4,3.7c-1.9,2-3.1,3.7-2.5,3.7.5.1-.4,1.2-2.1,2.6-1.7,1.5-2.2,2.4-1.2,2,2.5-.8,2.1.7-1.3,3.9-1.6,1.5-2.7,3.1-2.5,3.6.3.4-.7,1.7-2.2,2.9-1.6,1.2-2.1,1.9-1.3,1.5s-3.1,3.8-8.8,9.2c-5.6,5.4-10.2,10.1-10.2,10.5,0,.9,8.7-2.9,12.3-5.4,1.5-1.1,2.7-1.5,2.7-.9s.7.8,1.5.5c2.2-.9,1.8.5-1.1,4.3-1.4,1.8-2.7,4.3-2.9,5.4-.3,1.2-1.1,2.9-2,3.9-.8.9-1.5,2-1.5,2.5,0,1.3,3.1-1.7,6.2-6.3,1.6-2.4,3.2-4.1,3.5-3.8s-1.7,3.3-4.4,6.8c-4.6,5.9-6.9,9.8-5.7,9.8s4.2-3.7,8.7-8.3,7.9-7.9,7.5-7.3c-1.2,1.5-.9,2.8.4,2,.7-.4.8-.3.4.5-.4.6-1.2.8-1.8.5-.7-.4-.8-.2-.4.5.4.6.1,2.3-.8,3.6-1,1.6-1.2,2.5-.4,2.7.8.3.7,1.1-.3,2.8-.7,1.4-1.2,3-1.1,3.7.1.6-.2,1.4-.7,1.7s-.7,1.5-.4,2.6c.3,1.2-.1,2.2-1.1,2.6-.9.3-1.6,1.4-1.6,2.3s-.7,2.6-1.5,3.7c-.8,1.2-1.2,2.4-.8,2.7.3.3-.9,2.4-2.6,4.5-5.3,6.8-3.4,6,3.4-1.3,6-6.4,6.7-6.7,4.8-1.8-.3,1-.8,2.9-1,4.2-.2,1.4-.8,3.2-1.2,4-.5.9-.9,3.5-.9,5.8-.1,2.3-.6,5.1-1.2,6.2-.9,1.7-.8,2,.6,1.4,1.3-.5,1.5-.3.9.7-.5.8-.9,2.6-1,4s-.5,3.1-.9,3.8c-1.4,2.2,1.8,1.2,4.6-1.5,1.7-1.6,2.8-2.1,2.8-1.3s.6.8,2-.5c2.6-2.4,2.5-1.5-.6,4.6-3.6,7.2-2.6,9.7,1.4,3.4,1.7-2.8,3.6-5.5,4.1-6.1s1.9-3,3-5.2c3.5-6.8,4.5-6.4,3.8,1.5-.9,9-4.5,20-11.2,34-6.7,14.1-9.2,17.6-21,30.4-14.8,16-28.5,40.6-30.5,55-.9,6.5-1.5,7.8-4.8,11.2-3.7,3.9-13.6,11.7-14.7,11.7-3.7,0-32.5,30.8-32.5,34.8s-.9,2.1-2.1,3.6c-1.1,1.5-1.9,3.3-1.6,4,.3.8-.1,3.8-.8,6.7-.8,2.9-1.2,5.6-1,6,.3.3-.5,1.9-1.7,3.5-1.3,1.5-1.7,2.4-1,2,1.1-.6,1.2.8.7,7.1-1.1,13.9-1.2,17.7-.4,20.8.4,1.6,1.5,6.6,2.5,11,2.3,11,4.6,16.4,9,21l3.7,4-.7-3-.7-3,2.2,2.5c1.8,2.1,2,2.2,1.5.5-.7-2.4,3.2,1.9,7,7.8,1.4,2.2,2.8,3.6,3.1,3.3s0-1.3-.8-2.2c-1.3-1.6-1.2-1.6.9-.5,1.3.7,2.8,2.3,3.4,3.6s1.6,2.1,2.3,1.9c.6-.3,1.8.2,2.5,1,.7.9,1.7,1.3,2.3.9.5-.3.8-.2.5.3s0,1.4.7,2.1c.9.8,1.5.9,1.7.2.2-.6,1.5-.1,3,1,1.4,1.2,3.2,2.1,4,2.1s2.2.6,3.3,1.4c2.2,1.4,11.9,3,11.1,1.8-.3-.5,1.5-.8,4-.7,4.3.1,5.7-.8,3.2-1.9-.7-.3,1.3-.4,4.5-.2s7.3,0,9.1-.4c4.6-1,9.4-.1,10.1,2s5,4,12.9,4,13.6-1.5,13.6-3.5-1.7-4.2-3.8-7.6c-3.3-5.5-4.7-6.8-10-9.4-3.3-1.7-7-3.9-8.2-4.9-2.2-2.1-11.8-16.2-14.3-21.1-3.8-7.6-4-21.2-.4-28.2.9-1.8,4.4-6.3,7.8-10,3.3-3.7,8.6-10.7,11.9-15.4,3.4-4.9,7.5-9.7,9.8-11.2l4-2.6,2.2,2.4c2.2,2.3,2.3,3,1.7,11.7-.4,6.5-1.9,13.5-4.7,23.1-2.2,7.6-4,14.7-4,15.7s2.3,4,5.2,6.7c14.5,13.6,28.9,30,35.4,40.3,7.4,11.7,7.7,12,15.2,12s11.4,2.1,13.2,8.5c.7,2.5,2.1,5,3.1,5.5,1,.6,6.4,1.3,12.1,1.6,8,.5,10.7.3,12.2-.8,1.7-1.4,1.7-1.7-1.2-7.9-1.7-3.5-3.3-7.2-3.6-8.2-.6-1.7-2.1-2.5-11.6-6-7.8-2.9-30.4-24.7-37.2-35.9-8.8-14.4-9.8-28.3-3.8-52.6,2-8.3,3.1-15.7,3.4-23,.4-8.6,1.1-12.4,3.6-19.7,3.7-10.8,3.5-15.8-1.1-25.5l-3-6.3,2.5-3.7c1.3-2,8.1-9.2,15-16.1,22.1-21.7,30.2-34.3,39.1-61.2,7.2-21.8,10.8-28.5,17.5-32.6,2.8-1.7,5.4-3.1,5.9-3.1,1.7,0,7.1-5.1,7.1-6.6s3.5-5.9,7.8-11.2,8.9-11.3,10.2-13.2c2.6-3.8,4.1-5.1,5.1-4.5.3.3,1.6,3.1,2.7,6.3,1.3,3.3,3.5,7,5.2,8.5,3.5,3.2,3.7,4.5,1,8-3,3.8-2.6,8.6,1.2,12.6,4.1,4.4,11.6,9.1,14.4,9.1s2.2.7,3.9-13.3c.4-3,0-5.7-1.3-8.8-1.1-2.4-2.5-7.6-3.1-11.4-1.4-8-2.1-9.3-9.1-16.6l-5.1-5.3,5.7-2.3c8.5-3.4,12.6-3,23.5,2.1,13.4,6.3,16.8,7.6,19.6,7.6s6.3,1.8,6.3,4.5.8,4,1.7,5.9c1.9,4.1,6.6,6.1,17.1,7.2,6.1.7,6.2.6,6.2-1.9s-.7-4.9-1.6-7.8c-.9-3-1.8-5.9-2-6.6s-2.5-2.3-5.2-3.7-7.3-5-10.2-8c-6-6.3-7-6.8-21.1-9.5-11.6-2.3-25.2-6.5-28.3-8.7-1.1-.8-4.3-1.4-7-1.4-4.8,0-12.6,1.8-12.6,2.9s-.9,1.7-1.9,3l-1.8,2.4-4.3-6.1c-4.5-6.4-5.4-6.8-17.2-9.7-5.6-1.4-7.9,2-14,20.2-1.7,5.1-3.5,9.3-4.1,9.3s-2.9-2-5.3-4.4c-5.2-5.4-7.4-6.7-11.5-6.4-2.2.2-3.4-.3-4.2-1.7-2.5-4.4-13.6-37.3-13.7-40.3,0-2.3.3-2.4,4.8-1.9,2.6.3,6.7,1,9.2,1.6,2.5.5,8.8,1,14.1,1.1,8.5,0,9.8.2,11.5,2.1,2.8,3.2,5.6,3.9,10.3,2.7,2.7-.7,4.8-2,5.9-3.7.9-1.4,2.5-3.2,3.4-3.9,2.3-1.7,2.3-4.2.1-11.6-1.4-4.5-2.7-6.6-5.8-9.1-5.8-4.7-44.2-26.4-49.3-27.8-3.7-1-4.4-1.6-5.3-4.9-1-3.8-1.5-4.2-5.7-3.8-1.3.1-3.4-.6-4.7-1.4-3.3-2.2-4.3-2-8.7,1-3.5,2.5-4,2.6-5.6,1.1-3.1-2.7-12.2-7.7-12.2-6.6s.5,1.9,1,3c.6,1,.7,1.9.3,1.9-1.5,0-7.3-4-7.3-5s-.4-1-1-1-1,1.7-1,3.7ZM81.1,340.4c-.9,3.6-9,14.1-18.7,24.1-4.9,5.1-8.9,9.9-8.9,10.7,0,1.9,5.6,18.2,7.6,21.9,1.5,3.1,6.5,17.1,8.3,23.4,5.2,18.7,5.1,18.6,12.3,19.3,4.9.5,9.7,2.7,9.8,4.5,0,.4-2.8.6-6.3.4-4.8-.3-6.9-.9-8.9-2.6-1.5-1.3-2.4-2.9-2.2-3.6.3-.7-.6-1.5-2.1-1.9-3.5-.9-12.5-9.4-11.8-11.1.3-.9-.5-1.7-2.1-2.1-1.4-.3-2.6-1.1-2.6-1.7s-1-2.1-2.2-3.4c-2.1-2.2-2.1-2.4-.3-1.7,1.1.3,0-1.2-2.5-3.6-2.5-2.3-3.8-3.9-2.9-3.7,1.4.5,1.2-.3-.7-4.4-2.8-5.7-3-6.6-.9-4.9,1.3,1.1,1.3.9.1-2.1-.7-1.9-1.6-5.7-1.9-8.4q-.6-5,.9-2t.8-2.5c-.3-3-1-5.9-1.5-6.4-1.5-1.7-1-2.9.6-1.6,1.3,1.1,1.4,1,.8-.6-.6-1.7-.5-1.8,1.2-.4,1.7,1.3,1.7,1.1-.2-2-1.9-3-2-3.8-.9-5.9s1.5-2.2,2.2-.8c.6,1,.9-.7,1-5.1,0-3.7.4-8.7.9-11.2.8-3.9,1-4.2,1.5-2,.6,2.3.8,2.1,1.5-1.5.9-4.6,3.5-9.2,3.5-6.2s1.9,1.4,3.1-3.8c.7-3,1.7-5.5,2.4-5.5,1.2,0,3.5-5.5,3.5-8.3s3.1,1.3,8.1,6.3,8,8.5,7.5,10.4Z"/>
</svg>